<?xml version="1.0" encoding="UTF-8" standalone="no"?>
<svg
   width="100%"
   height="100%"
   viewBox="0 0 2048 2048"
   version="1.1"
   xml:space="preserve"
   style="fill-rule:evenodd;clip-rule:evenodd;stroke-linejoin:round;stroke-miterlimit:2;"
   id="svg36"
   sodipodi:docname="bta.svg"
   inkscape:version="1.4.2 (f4327f4, 2025-05-13)"
   inkscape:export-filename="bta.png"
   inkscape:export-xdpi="96"
   inkscape:export-ydpi="96"
   xmlns:inkscape="http://www.inkscape.org/namespaces/inkscape"
   xmlns:sodipodi="http://sodipodi.sourceforge.net/DTD/sodipodi-0.dtd"
   xmlns="http://www.w3.org/2000/svg"
   xmlns:svg="http://www.w3.org/2000/svg"><defs
   id="defs36" /><sodipodi:namedview
   id="namedview36"
   pagecolor="#505050"
   bordercolor="#ffffff"
   borderopacity="1"
   inkscape:showpageshadow="0"
   inkscape:pageopacity="0"
   inkscape:pagecheckerboard="1"
   inkscape:deskcolor="#505050"
   inkscape:zoom="0.19873047"
   inkscape:cx="870.52581"
   inkscape:cy="1947.3612"
   inkscape:window-width="2560"
   inkscape:window-height="1009"
   inkscape:window-x="-8"
   inkscape:window-y="-8"
   inkscape:window-maximized="1"
   inkscape:current-layer="svg36" />
    <g
   id="g5">
        <path
   d="M1026.66,0L109.046,469.383L1026.66,1024L1944.29,469.383L1026.66,0Z"
   style="fill:rgb(229,219,210);"
   id="path1" />
        <path
   d="M109.046,469.383L1026.66,1024L1026.66,2048L109.046,1578.62L109.046,469.383Z"
   style="fill:rgb(91,83,89);"
   id="path2" />
        <g
   transform="matrix(-1,9.86076e-32,9.86076e-32,1,2050.67,4.54747e-13)"
   id="g3">
            <path
   d="M109.046,469.383L1026.66,1024L1026.66,2048L109.046,1578.62L109.046,469.383Z"
   style="fill:rgb(177,158,152);"
   id="path3" />
        </g>
        <g
   transform="matrix(1,-1.43638e-34,1.28524e-32,1,2.66525,2.52243e-13)"
   id="g4">
            <path
   d="M1024,-0L1941.62,469.383L1941.62,1578.62L1024,2048L106.381,1578.62L106.381,469.383L1024,-0ZM1024,68.798L167.631,506.85L167.631,1541.15L1024,1979.2L1880.37,1541.15L1880.37,506.85L1024,68.798Z"
   id="path4" />
        </g>
    </g>
    
<g
   id="g13"
   transform="matrix(1.1014677,0,0,1.1014677,-18.156141,-142.73819)"
   style="stroke-width:0.90788"><path
     style="fill:#e0dbd6;stroke-width:0.90788"
     d="m 173.69901,1202.3047 v -28.6094 H 145.08963 116.48026 V 1002.039 830.38271 h 28.60937 28.60938 v -28.60938 -28.60938 h 143.0469 143.04689 v 28.60938 28.60938 h 57.21876 57.21876 v 57.21876 57.21876 h -28.60938 -28.60938 v 57.21877 57.2188 h 28.60938 28.60938 v 57.2187 57.2188 h -28.60938 -28.60938 v 28.6094 28.6093 H 345.35529 173.69901 Z M 459.7928,1087.8671 v -28.6093 H 345.35529 230.91777 v 28.6093 28.6094 H 345.35529 459.7928 Z m 0,-171.65625 V 887.60147 H 345.35529 230.91777 v 28.60938 28.60938 H 345.35529 459.7928 Z M 803.10535,1059.2578 V 887.60147 h -85.82814 -85.82813 v -28.60938 -28.60938 h 28.60938 28.60937 v -28.60938 -28.60938 h 200.26566 200.26561 v 28.60938 28.60938 h -28.6093 -28.6094 v 28.60938 28.60938 H 974.76162 917.54287 V 1059.2578 1230.914 H 860.32411 803.10535 Z M 1146.4179,1002.039 V 773.16395 h 200.2656 200.2657 v 57.21876 57.21876 h 28.6094 28.6094 v 114.43753 114.4375 h -28.6094 -28.6094 v 57.2188 57.2187 h -200.2657 -200.2656 z m 343.3125,0 V 887.60147 h -114.4375 -114.4375 v 114.43753 114.4375 h 114.4375 114.4375 z m 171.6563,171.6563 v -57.2188 h 57.2188 57.2187 v 28.6094 28.6094 h -28.6093 -28.6094 v 28.6094 28.6093 h -28.6094 -28.6094 z m 0,-257.48445 v -143.0469 h 57.2188 57.2187 V 887.60147 1002.039 h -28.6093 -28.6094 v 28.6094 28.6094 h -28.6094 -28.6094 z"
     id="path16" /><path
     style="fill:#aaa09d;stroke-width:0.90788"
     d="m 116.48026,1202.3047 v -28.6094 h 28.60937 28.60938 v 28.6094 28.6093 h -28.60938 -28.60937 z m 1602.12524,0 v -28.6094 h 28.6094 28.6093 v 28.6094 28.6093 h -28.6093 -28.6094 z m -171.6563,-57.2188 v -28.6094 h 28.6094 28.6094 v 28.6094 28.6094 h -28.6094 -28.6094 z m -114.4375,-57.2188 v -28.6093 h 28.6094 28.6093 v 28.6093 28.6094 h -28.6093 -28.6094 z m -915.50014,-57.2187 v -28.6094 h 28.60938 28.60938 v 28.6094 28.6094 h -28.60938 -28.60938 z m 1201.59394,0 v -28.6094 h 28.6094 28.6093 v 28.6094 28.6094 h -28.6093 -28.6094 z M 1432.5117,916.21085 v -28.60938 h 28.6094 28.6093 v 28.60938 28.60938 h -28.6093 -28.6094 z m -400.5313,-57.21876 v -28.60938 h 28.6094 28.6093 v 28.60938 28.60938 h -28.6093 -28.6094 z m 514.9688,0 v -28.60938 h 28.6094 28.6094 v 28.60938 28.60938 h -28.6094 -28.6094 z M 116.48026,801.77333 v -28.60938 h 28.60937 28.60938 v 28.60938 28.60938 h -28.60938 -28.60937 z m 343.31254,0 v -28.60938 h 28.60938 28.60938 v 28.60938 28.60938 H 488.40218 459.7928 Z m 171.65628,0 v -28.60938 h 28.60938 28.60937 v 28.60938 28.60938 h -28.60937 -28.60938 z"
     id="path15" /><path
     style="fill:#585457;stroke-width:0.90788"
     d="m 116.48026,1288.1328 v -57.2188 h 200.26565 200.26565 v -28.6093 -28.6094 h 28.60938 28.60938 v 57.2187 57.2188 h -28.60938 -28.60938 v 28.6094 28.6094 H 316.74591 116.48026 Z m 686.62509,0 v -57.2188 h 57.21876 57.21876 v 57.2188 57.2188 h -57.21876 -57.21876 z m 343.31255,0 v -57.2188 h 200.2656 200.2657 v -28.6093 -28.6094 h 28.6094 28.6094 v 57.2187 57.2188 h -28.6094 -28.6094 v 28.6094 28.6094 h -200.2657 -200.2656 z m 514.9688,0 v -57.2188 h 57.2188 57.2187 v 57.2188 57.2188 h -57.2187 -57.2188 z M 230.91777,1087.8671 v -28.6093 H 345.35529 459.7928 v 28.6093 28.6094 H 345.35529 230.91777 Z m 1430.46893,0 v -28.6093 h 57.2188 57.2187 v 28.6093 28.6094 h -57.2187 -57.2188 z m -228.875,-57.2187 v -28.6094 h -85.8282 -85.8281 v -57.21877 -57.21876 h 85.8281 85.8282 v 28.60938 28.60938 h 28.6094 28.6093 v 57.21877 57.2188 h -28.6093 -28.6094 z M 517.01156,973.42961 v -28.60938 h 28.60938 28.60938 v 28.60938 28.60939 h -28.60938 -28.60938 z m 114.43752,-28.60938 v -57.21876 h 85.82813 85.82814 v 57.21876 57.21877 h -85.82814 -85.82813 z m 286.09379,0 v -57.21876 h 85.82813 85.8281 v 57.21876 57.21877 H 1003.371 917.54287 Z M 230.91777,916.21085 V 887.60147 H 345.35529 459.7928 v 28.60938 28.60938 H 345.35529 230.91777 Z"
     id="path14" /><path
     style="fill:#000000;stroke-width:0.90788"
     d="M 59.261497,1059.2578 V 715.94519 H 946.15224 1833.043 v 343.31261 343.3125 h -371.9219 -371.922 V 1230.914 1059.2578 h -57.2187 -57.21878 v 171.6562 171.6563 H 860.32411 745.88659 V 1230.914 1059.2578 h -57.21876 -57.21875 v 143.0469 143.0469 H 602.8397 574.23032 v 28.6093 28.6094 H 316.74591 59.261497 Z m 457.750063,257.4844 v -28.6094 h 28.60938 28.60938 V 1059.2578 830.38271 H 545.62094 517.01156 V 801.77333 773.16395 H 316.74591 116.48026 v 286.09385 286.0938 H 316.74591 517.01156 Z M 917.54287,1173.6953 V 1002.039 h 85.82813 85.8281 V 887.60147 773.16395 H 860.32411 631.44908 V 887.60147 1002.039 h 85.82813 85.82814 v 171.6563 171.6563 h 57.21876 57.21876 z m 629.40633,143.0469 v -28.6094 h 28.6094 28.6094 v -228.875 -228.87509 h -28.6094 -28.6094 v -28.60938 -28.60938 h -200.2657 -200.2656 v 286.09385 286.0938 h 200.2656 200.2657 z m -286.0938,-257.4844 v -57.2188 h 85.8281 85.8282 v 57.2188 57.2187 h -85.8282 -85.8281 z m 514.9688,0 V 773.16395 h -57.2187 -57.2188 v 286.09385 286.0938 h 57.2188 57.2187 z"
     id="path13" /></g></svg>
