<?xml version="1.0" encoding="UTF-8" standalone="no"?>
<!DOCTYPE svg PUBLIC "-//W3C//DTD SVG 1.1//EN" "http://www.w3.org/Graphics/SVG/1.1/DTD/svg11.dtd">
<svg width="100%" height="100%" viewBox="0 0 2048 2048" version="1.1" xmlns="http://www.w3.org/2000/svg" xmlns:xlink="http://www.w3.org/1999/xlink" xml:space="preserve" xmlns:serif="http://www.serif.com/" style="fill-rule:evenodd;clip-rule:evenodd;stroke-linejoin:round;stroke-miterlimit:2;">
    <g>
        <path d="M1026.66,0L109.046,469.383L1026.66,1024L1944.29,469.383L1026.66,0Z" style="fill:rgb(229,219,210);"/>
        <path d="M109.046,469.383L1026.66,1024L1026.66,2048L109.046,1578.62L109.046,469.383Z" style="fill:rgb(91,83,89);"/>
        <g transform="matrix(-1,9.86076e-32,9.86076e-32,1,2050.67,4.54747e-13)">
            <path d="M109.046,469.383L1026.66,1024L1026.66,2048L109.046,1578.62L109.046,469.383Z" style="fill:rgb(177,158,152);"/>
        </g>
        <g transform="matrix(1,-1.43638e-34,1.28524e-32,1,2.66525,2.52243e-13)">
            <path d="M1024,-0L1941.62,469.383L1941.62,1578.62L1024,2048L106.381,1578.62L106.381,469.383L1024,-0ZM1024,68.798L167.631,506.85L167.631,1541.15L1024,1979.2L1880.37,1541.15L1880.37,506.85L1024,68.798Z"/>
        </g>
    </g>
    <g id="bta">
        <g transform="matrix(0.997458,-1.43273e-34,1.28198e-32,0.997458,2.60947,2.60269)">
            <path d="M1946.62,813.173L106.708,813.173L106.708,1426.48L536.021,1426.48L536.021,1365.15L597.352,1365.15L597.352,1058.5L842.674,1058.5L842.674,1426.48L965.335,1426.48L965.335,1058.5L1210.66,1058.5L1210.66,1426.48L1333.32,1426.48L1333.32,1242.49L1578.64,1242.49L1578.64,1426.48L1946.62,1426.48L1946.62,813.173" style="fill:rgb(229,219,210);"/>
        </g>
        <g transform="matrix(1.04786,-1.50512e-34,1.34675e-32,1.04786,-474.562,15.9893)">
            <path d="M1782.95,1403.48L1549.43,1403.48L1549.43,1053.19L1432.66,1053.19L1432.66,1403.48L1199.14,1403.48L1199.14,1053.19L1082.38,1053.19L1082.38,1345.09L1024,1345.09L1024,1403.48L498.573,1403.48L498.573,702.906L2366.76,702.906L2366.76,1403.48L1899.71,1403.48L1899.71,1228.33L1782.95,1228.33L1782.95,1403.48ZM1257.52,1345.09L1374.28,1345.09L1374.28,994.81L1549.43,994.81L1549.43,761.287L1082.38,761.287L1082.38,994.81L1257.52,994.81L1257.52,1345.09ZM2074.85,819.667L2016.47,819.667L2016.47,761.287L1666.19,761.287L1666.19,819.667L1607.81,819.667L1607.81,1345.09L1724.57,1345.09L1724.57,1169.95L1958.09,1169.95L1958.09,1345.09L2074.85,1345.09L2074.85,819.667ZM2191.62,1345.09L2308.38,1345.09L2308.38,761.287L2191.62,761.287L2191.62,1345.09ZM965.619,761.287L556.954,761.287L556.954,1345.09L965.619,1345.09L965.619,1286.71L1024,1286.71L1024,819.667L965.619,819.667L965.619,761.287Z"/>
        </g>
        <g transform="matrix(6.41627e-17,1.04786,-1.04786,6.41627e-17,1640.53,196.097)">
            <rect x="448.461" y="1403.48" width="58.381" height="58.381"/>
        </g>
        <g transform="matrix(6.41627e-17,1.04786,-1.04786,6.41627e-17,3414.92,196.097)">
            <rect x="448.461" y="1403.48" width="58.381" height="58.381"/>
        </g>
        <g transform="matrix(6.41627e-17,1.04786,-1.04786,6.41627e-17,2047.82,527.309)">
            <rect x="448.461" y="1383.18" width="58.381" height="58.381" style="fill:rgb(91,83,89);"/>
        </g>
        <g transform="matrix(6.41627e-17,1.04786,-1.04786,6.41627e-17,2047.82,588.484)">
            <rect x="448.461" y="1383.18" width="58.381" height="58.381" style="fill:rgb(177,158,152);"/>
        </g>
        <g transform="matrix(6.41627e-17,1.04786,-1.04786,6.41627e-17,1986.64,343.785)">
            <rect x="448.461" y="1383.18" width="58.381" height="58.381" style="fill:rgb(177,158,152);"/>
        </g>
        <g transform="matrix(6.41627e-17,1.04786,-1.04786,6.41627e-17,2186.14,343.785)">
            <rect x="448.461" y="1398.42" width="58.381" height="58.381" style="fill:rgb(177,158,152);"/>
        </g>
        <g transform="matrix(6.41627e-17,1.04786,-1.04786,6.41627e-17,2601.08,404.96)">
            <rect x="448.461" y="1385.75" width="58.381" height="58.381" style="fill:rgb(177,158,152);"/>
        </g>
        <g transform="matrix(6.41627e-17,1.04786,-1.04786,6.41627e-17,2732.74,404.96)">
            <rect x="448.461" y="1394.64" width="58.381" height="58.381" style="fill:rgb(177,158,152);"/>
        </g>
        <g transform="matrix(6.41627e-17,1.04786,-1.04786,6.41627e-17,2732.74,772.008)">
            <rect x="448.461" y="1394.64" width="58.381" height="58.381" style="fill:rgb(177,158,152);"/>
        </g>
        <g transform="matrix(6.41627e-17,1.04786,-1.04786,6.41627e-17,2882.08,692.008)">
            <rect x="408.046" y="1245.25" width="116.761" height="233.523" style="fill:rgb(91,83,89);"/>
        </g>
        <g transform="matrix(6.41627e-17,1.04786,-1.04786,6.41627e-17,3130.4,404.96)">
            <rect x="448.461" y="1365.46" width="58.381" height="58.381" style="fill:rgb(177,158,152);"/>
        </g>
        <g transform="matrix(6.41627e-17,1.04786,-1.04786,6.41627e-17,3375.1,772.008)">
            <rect x="448.461" y="1365.46" width="58.381" height="58.381" style="fill:rgb(177,158,152);"/>
        </g>
        <g transform="matrix(6.41627e-17,1.04786,-1.04786,6.41627e-17,3313.92,710.833)">
            <rect x="448.461" y="1365.46" width="58.381" height="58.381" style="fill:rgb(177,158,152);"/>
        </g>
        <g transform="matrix(6.41627e-17,1.04786,-1.04786,6.41627e-17,3375.1,588.484)">
            <rect x="448.461" y="1365.46" width="58.381" height="58.381" style="fill:rgb(177,158,152);"/>
        </g>
        <g transform="matrix(6.41627e-17,1.04786,-1.04786,6.41627e-17,3313.92,343.785)">
            <rect x="448.461" y="1365.46" width="58.381" height="58.381" style="fill:rgb(177,158,152);"/>
        </g>
        <g transform="matrix(6.41627e-17,1.04786,-1.04786,6.41627e-17,3130.4,772.008)">
            <rect x="448.461" y="1365.46" width="58.381" height="58.381" style="fill:rgb(177,158,152);"/>
        </g>
        <g transform="matrix(6.41627e-17,1.04786,-1.04786,6.41627e-17,1619.6,343.785)">
            <rect x="448.461" y="1383.18" width="58.381" height="58.381" style="fill:rgb(177,158,152);"/>
        </g>
        <g transform="matrix(6.41627e-17,1.04786,-1.04786,6.41627e-17,1619.6,772.008)">
            <rect x="448.461" y="1383.18" width="58.381" height="58.381" style="fill:rgb(177,158,152);"/>
        </g>
        <g transform="matrix(6.41627e-17,1.04786,-1.04786,6.41627e-17,1944.08,466.135)">
            <rect x="448.461" y="1403.48" width="58.381" height="233.523" style="fill:rgb(91,83,89);"/>
        </g>
        <g transform="matrix(6.41627e-17,1.04786,-1.04786,6.41627e-17,1944.08,649.658)">
            <rect x="448.461" y="1403.48" width="58.381" height="233.523" style="fill:rgb(91,83,89);"/>
        </g>
        <g transform="matrix(1.28325e-16,2.09571,-2.09571,1.28325e-16,3946.69,327.272)">
            <rect x="465.633" y="1422.52" width="58.381" height="58.381" style="fill:rgb(91,83,89);"/>
        </g>
        <g transform="matrix(6.41627e-17,1.04786,-1.04786,6.41627e-17,2517.26,509.316)">
            <rect x="407.252" y="1305.76" width="116.761" height="175.142" style="fill:rgb(91,83,89);"/>
        </g>
        <g transform="matrix(6.41627e-17,1.04786,-1.04786,6.41627e-17,2235.32,509.316)">
            <rect x="407.252" y="1328.59" width="116.761" height="175.142" style="fill:rgb(91,83,89);"/>
        </g>
        <g transform="matrix(1.28325e-16,2.09571,-2.09571,1.28325e-16,3485.18,327.272)">
            <path d="M524.014,1406.64L524.014,1610.97L465.633,1610.97L465.633,1406.64L436.443,1406.64L436.443,1377.45L494.823,1377.45L494.823,1406.64L524.014,1406.64Z" style="fill:rgb(91,83,89);"/>
        </g>
        <g transform="matrix(1.28325e-16,2.09571,-2.09571,1.28325e-16,4285.82,327.272)">
            <rect x="465.633" y="1409.2" width="58.381" height="58.381" style="fill:rgb(91,83,89);"/>
        </g>
        <g transform="matrix(1.28325e-16,2.09571,-2.09571,1.28325e-16,4413.49,-39.7755)">
            <rect x="465.633" y="1353.36" width="58.381" height="116.761" style="fill:rgb(91,83,89);"/>
        </g>
        <g transform="matrix(1.28325e-16,2.09571,-2.09571,1.28325e-16,4285.82,327.272)">
            <rect x="465.633" y="1234.06" width="58.381" height="58.381" style="fill:rgb(91,83,89);"/>
        </g>
        <g transform="matrix(1.28325e-16,2.09571,-2.09571,1.28325e-16,4542.5,327.272)">
            <rect x="465.633" y="1239.78" width="58.381" height="58.381" style="fill:rgb(91,83,89);"/>
        </g>
        <g transform="matrix(6.41627e-17,1.04786,-2.09571,1.28325e-16,4542.5,631.665)">
            <rect x="465.633" y="1239.78" width="58.381" height="58.381" style="fill:rgb(91,83,89);"/>
        </g>
    </g>
</svg>
